<?xml version="1.0" encoding="utf-8"?>
<!-- Generator: Adobe Illustrator 27.5.0, SVG Export Plug-In . SVG Version: 6.00 Build 0)  -->
<svg version="1.1" id="Layer_1" xmlns="http://www.w3.org/2000/svg" xmlns:xlink="http://www.w3.org/1999/xlink" x="0px" y="0px"
	 viewBox="0 0 3600 2000" style="enable-background:new 0 0 3600 2000;" xml:space="preserve">
<rect style="fill:#FFFFFF;" width="3600" height="2000"/>
<g>
	<path style="fill:#C9EAFD;" d="M3424.324,1540.494c-35.104-183.024,98.603-375.824,5.674-549.256
		c-29.513-55.078-80.099-103.565-121.325-155.052c-62.239-77.73-103.479-163.197-121.057-250.88
		c-11.499-57.363-13.011-115.773-32.165-172.184c-53.134-156.485-252.162-285.339-484.73-313.822
		c-187.433-22.955-387.69,6.43-551.125,72.947C1385.507,471.015,1038.408,329.689,782.282,432.77
		c-160.537,64.61-250.114,184.749-309.798,304.854c-59.684,120.103-47.021,381.669-185.114,466.891
		c-37.016,22.844-79.202,41.818-113.517,66.534c-112.932,81.337-118.004,212.13-52.323,314.665
		c56.748,88.59,185.907,206.418,316.359,258.559c7.024,2.808,32.88,8.086,54.054,8.227c279.532,1.849,2251.956,5.274,2692.171,2.84
		c69.298-0.383,144.09-1.993,198.938-30.779c58.466-30.687,78.771-85.265,75.827-135.429
		C3455.936,1638.968,3433.872,1590.275,3424.324,1540.494z"/>
	<g>
		<path style="fill:#FFC0BB;" d="M2715.066,1109.125c1.971,1.313,87.195,13.78,91.629,11.81
			c4.435-1.971,22.661-41.382,22.661-41.382l33.868,27.66c0,0-20.566,51.852-29.435,55.447
			c-8.867,3.597-105.423-17.094-105.423-17.094L2715.066,1109.125z"/>
		<g>
			<path style="fill:#FFC0BB;" d="M2822.624,1760.551c1.729,31.471,0.136,86.037,0.136,86.037l29.687-17.151
				c1.024-4.634,7.175-42.459,9.589-70.199L2822.624,1760.551z"/>
			<path style="fill:#FFC0BB;" d="M2783.578,1833.279l39.82-24.827l29.048,20.984l-11.114,7.989l-38.687,5.643
				c0,0-15.119-1.862-15.786-2.308C2786.192,1840.316,2783.578,1833.279,2783.578,1833.279z"/>
			<path style="fill:#FF5B7E;" d="M2783.578,1833.279l-9.339,6.069c-4.327,2.759-2.374,9.46,2.759,9.46h70.919
				c2.501,0,4.529-2.028,4.529-4.53v-14.842C2805.215,1844.473,2788.902,1839.898,2783.578,1833.279z"/>
		</g>
		<g>
			<path style="fill:#FFC0BB;" d="M3117.548,1771.427l23.452,72.25l29.688-16.09c-1.66-6.65-16.693-47.539-21.119-67.658
				L3117.548,1771.427z"/>
			<path style="fill:#FFC0BB;" d="M3101.819,1830.367l39.819-24.826l29.049,20.983l-11.114,7.99l-38.687,5.643
				c0,0-15.119-1.862-15.785-2.308C3104.434,1837.405,3101.819,1830.367,3101.819,1830.367z"/>
			<path style="fill:#FF5B7E;" d="M3133.617,1835.593c-19.643,2.764-28.213-0.768-31.798-5.226l-9.339,6.07
				c-4.328,2.758-2.374,9.459,2.758,9.459h70.92c2.501,0,4.529-2.027,4.529-4.529v-14.843
				C3155.266,1831.435,3143.141,1834.254,3133.617,1835.593L3133.617,1835.593z"/>
		</g>
		<path style="fill:#02A595;" d="M2888.397,958.334c0,0-66.431,38.284-74.313,138.628l74.313,16.269V958.334z"/>
		<path style="fill:#FFC0BB;" d="M2895.862,953.945l68.969-3.941l-9.524,29.229c0,0-21.316,9.853-29.05,5.912
			c-7.733-3.941-29.907-18.392-29.907-18.392L2895.862,953.945z"/>
		<path style="fill:#FEB546;" d="M2952.022,1477.122c0,0-0.985,45.322,4.927,61.087c5.911,15.764,121.188,252.8,160.599,278.417
			c0,0,32.449-4.021,53.14-21.755c0,0-126.05-260.604-125.064-301.984c0.985-41.382,38.165-187.365,27.587-241.826
			c-10.577-54.461-178.172,22.852-178.172,22.852s-46.469,150.006-51.396,178.578c-8.66,50.234-39.534,241.533-29.064,341.396
			l50.946,9.026C2865.524,1802.912,2895.862,1591.413,2952.022,1477.122z"/>
		<path style="fill:#02CCC0;" d="M2895.862,953.945c0,0-36.947,14.287-36.947,76.358c0,62.071,36.947,247.795,36.947,247.795
			s118.232,19.705,182.768-31.036l-47.786-150.746c0,0,32.514-3.448,42.366-7.882c0,0,8.868-133.504-108.379-138.43
			C2964.831,950.004,2924.928,982.025,2895.862,953.945z"/>
		<g>
			<path style="fill:#02A595;" d="M2620.308,1233.627c0,0-42.613-104.109,3.169-220.635
				C2623.477,1012.992,2652.858,1097.672,2620.308,1233.627z"/>
			<path style="fill:#02A595;" d="M2629.066,1248.262c0,0-22.75-110.169,43.672-216.293
				C2672.738,1031.969,2686.054,1120.606,2629.066,1248.262z"/>
			<path style="fill:#06BFAD;" d="M2604.433,1257.385c0,0-61.222-94.375-37.894-217.379
				C2566.539,1040.006,2611.147,1117.75,2604.433,1257.385z"/>
			<path style="fill:#06BFAD;" d="M2625.569,1238.449c0,0-30.391-80.063,15.789-163.261
				C2641.358,1075.188,2661.549,1139.947,2625.569,1238.449z"/>
			<path style="fill:#2BD8C3;" d="M2620.707,1242.731c0,0-51.64-68.314-30.666-161.13
				C2590.041,1081.602,2627.595,1138.091,2620.707,1242.731z"/>
			<path style="fill:#02A595;" d="M2621.842,1242.929c0,0-72.199-46.051-84.865-140.359
				C2536.977,1102.569,2591.854,1142.441,2621.842,1242.929z"/>
			<path style="fill:#2BD8C3;" d="M2622.969,1254.462c0,0-1.13-85.628,70.754-147.976
				C2693.723,1106.486,2690.51,1174.242,2622.969,1254.462z"/>
			<path style="fill:#FEB546;" d="M2620.453,1201.034h-2.987h-39.877c-2.931,0-5.093,2.736-4.416,5.587l15.626,65.754
				c0.486,2.045,2.313,3.488,4.415,3.488h24.252h2.987h24.252c2.102,0,3.929-1.443,4.414-3.488l15.626-65.754
				c0.678-2.851-1.484-5.587-4.415-5.587H2620.453z"/>
			<path style="opacity:0.1;fill:#8C532D;" d="M2581.309,1201.034h-3.72c-2.931,0-5.093,2.736-4.416,5.587l15.626,65.754
				c0.486,2.045,2.313,3.488,4.415,3.488h24.252h2.987h24.252c2.102,0,3.929-1.443,4.414-3.488l0.579-2.435
				C2620.439,1253.566,2591.901,1230.766,2581.309,1201.034z"/>
		</g>
		<path style="fill:#FF5B7E;" d="M2715.066,1105.184l-13.548-1.724l-0.246-19.459l-5.419-3.941l-41.875,23.154l7.391,10.017
			l8.338-3.769l2.007,25.28l5.911-2.956v-25.901l5.912-2.671l4.434,12.721l28.573,132.113c0,0,27.095,12.809,28.08,11.33
			c0.985-1.478,36.947-19.705,36.947-19.705v-13.302L2715.066,1105.184z"/>
		<g>
			<path style="fill:#FF5B7E;" d="M2956.838,834.622c0,0,17.954-11.75,38.385,0c20.432,11.75,20.432,51.382,12.383,60.867
				c-8.049,9.484,0.412,22.321-15.685,34.703s-41.726,16.926-56.358,2.462c-14.633-14.465-3.901-46.731-3.901-46.731
				L2956.838,834.622z"/>
			<path style="fill:#FFC0BB;" d="M2936.181,905.024l18.508,49.929c0,0-14.551,12.342-49.289,3.595c0,0,3.624-8.247-2.249-24.741
				C2897.149,916.952,2936.181,905.024,2936.181,905.024z"/>
			<path style="opacity:0.6;fill:#FC8D84;" d="M2936.181,905.024l6.722,18.056c-3.112,13.49-14.476,23.018-36.432,26.652
				c-0.138-3.971-0.948-9.264-3.32-15.925C2897.149,916.952,2936.181,905.024,2936.181,905.024z"/>
			<path style="fill:#F99893;" d="M2856.494,879.266c3.023,6.251,1.42,13.279-3.582,15.697c-5.001,2.418-11.506-0.69-14.528-6.941
				c-3.022-6.251-1.419-13.279,3.583-15.697C2846.968,869.906,2853.473,873.014,2856.494,879.266z"/>
			<path style="fill:#FFC0BB;" d="M2856.131,908.169c-3.597-8.06-5.704-16.727-6.931-24.325c-0.264-1.63-0.62-3.241-1.008-4.846
				c-1.564-6.483-1.981-13.433-0.895-20.679c3.494-23.31,22.247-41.894,45.596-45.121c31.455-4.348,59.164,18.94,61.121,49.787
				c3.235-2.077,6.974-2.746,10.384-1.475c6.542,2.439,9.374,11.044,6.326,19.221c-3.048,8.177-10.821,12.83-17.363,10.391
				c-0.908-0.338-1.737-0.806-2.496-1.365c-1.011,26.415-21.23,48.039-47.05,49.248
				C2884.225,939.922,2864.803,928.594,2856.131,908.169z"/>
			<path style="fill:#F99893;" d="M2888.357,866.62c0.118,3.041,0.215,6.047,0.137,9.017c-0.087,1.478-0.119,2.959-0.383,4.378
				c-0.236,1.407-0.566,2.82-1.236,3.897l-0.264,0.373c-0.095,0.133-0.146,0.231-0.302,0.423c-0.251,0.36-0.563,0.664-0.751,1.077
				c-0.209,0.395-0.424,0.785-0.529,1.234c-0.156,0.427-0.213,0.883-0.233,1.341c-0.09,1.857,0.887,3.55,2.128,4.64
				c1.249,1.128,2.791,1.768,4.33,2.084c1.551,0.295,3.117,0.288,4.617,0.021c-1.517-0.177-2.988-0.44-4.346-0.965
				c-1.356-0.502-2.599-1.265-3.509-2.256c-0.876-0.999-1.489-2.218-1.328-3.417c0.043-0.295,0.063-0.591,0.187-0.873
				c0.063-0.294,0.23-0.56,0.377-0.831c0.121-0.283,0.382-0.505,0.559-0.764c0.199-0.257,0.522-0.689,0.766-1.036
				c0.885-1.527,1.204-3.131,1.408-4.695c0.174-1.573,0.164-3.122,0.065-4.66C2889.832,872.541,2889.293,869.524,2888.357,866.62z"
				/>
			<path style="fill:#333333;" d="M2906.176,870.688c0.122,2.586,2.316,4.585,4.903,4.464c2.587-0.121,4.585-2.316,4.464-4.903
				c-0.121-2.586-2.316-4.585-4.902-4.464C2908.054,865.906,2906.055,868.101,2906.176,870.688z"/>
			<path style="fill:#333333;" d="M2866.078,875.208c0.121,2.586,2.316,4.585,4.903,4.464c2.587-0.121,4.585-2.317,4.464-4.903
				c-0.121-2.586-2.316-4.585-4.902-4.464C2867.956,870.427,2865.957,872.622,2866.078,875.208z"/>
			<path style="opacity:0.3;fill:#F99893;" d="M2908.308,906.286c0,0-6.792-2.155-12.944,2.209c0,0-6.975-4.017-12.195,0.255
				c0,0,2.865,10.06,14.039,8.965C2908.381,916.619,2908.308,906.286,2908.308,906.286z"/>
			<path style="fill:#F99893;" d="M2914.041,902.433c-1.23,1.072-2.515,2.066-3.873,2.943c-1.34,0.903-2.731,1.721-4.177,2.417
				c-2.886,1.395-5.946,2.414-9.1,2.796c-3.151,0.398-6.358,0.123-9.446-0.696c-3.078-0.864-6.01-2.28-8.787-3.991
				c1.249,1.05,2.586,2.007,4.005,2.843c1.419,0.839,2.948,1.483,4.506,2.054c1.575,0.523,3.211,0.888,4.872,1.063
				c1.662,0.154,3.341,0.134,5.002-0.052c3.314-0.432,6.518-1.542,9.388-3.183C2909.299,906.99,2911.934,904.939,2914.041,902.433z"
				/>
			<path style="fill:#FF5B7E;" d="M2900.29,860.099c2.387-0.737,4.634-1.3,6.856-1.645c2.219-0.342,4.394-0.401,6.512-0.143
				c2.107,0.283,4.227,0.734,6.265,1.661c1.081,0.336,2.024,0.978,3.119,1.435c1.055,0.526,2.033,1.194,3.215,1.712
				c-0.591-1.088-1.278-2.152-2.082-3.128c-0.884-0.883-1.73-1.88-2.836-2.553c-2.062-1.568-4.652-2.469-7.266-2.795
				c-2.63-0.316-5.317,0.068-7.704,1.025C2903.996,856.641,2901.822,858.09,2900.29,860.099z"/>
			<path style="fill:#FF5B7E;" d="M2879.635,862.424c-1.893-1.673-4.307-2.672-6.823-3.168c-2.527-0.475-5.238-0.33-7.757,0.491
				c-2.5,0.827-4.867,2.213-6.585,4.152c-0.953,0.875-1.59,2.018-2.286,3.055c-0.598,1.113-1.066,2.29-1.435,3.472
				c1.059-0.737,1.889-1.583,2.821-2.304c0.984-0.66,1.785-1.473,2.781-2.013c1.818-1.304,3.811-2.159,5.822-2.846
				c2.028-0.665,4.173-1.028,6.416-1.124C2874.838,862.049,2877.15,862.164,2879.635,862.424z"/>
			<path style="fill:#FF5B7E;" d="M2845.292,817.552c7.719-16.793,22.734-26.27,35.706-31.538
				c15.945-6.476,33.844-6.963,49.955-0.914c45.447,17.064,36.386,67.185,34.252,76.564c-2.172-0.504-5.16-0.439-8.795,1.532
				c-1.527,0.828-2.764,1.704-3.769,2.583c-8.842-2.695-11.519-17.373-16.095-24.445c-6.209-9.596-30.292-0.457-40.676-7.267
				c-10.385-6.81-12.151-13.889-12.151-13.889c-40.032,6.346-37.029,51.402-37.029,51.402c-1.731-0.387-5.732-6.873-5.732-6.873
				S2831.098,848.432,2845.292,817.552z"/>
		</g>
		<g style="opacity:0.3;">
			<path style="fill:#02CCC0;" d="M3078.63,1247.063l-47.786-150.746l-30.704-2.481l-16.975-62.158
				c0,0,36.841,196.173-87.304,246.421C2895.861,1278.098,3014.094,1297.804,3078.63,1247.063z"/>
		</g>
		<path style="fill:#FFFFFF;" d="M2952.022,1477.122c0.544-13.228,1.368-26.425,2.474-39.593
			c1.045-13.174,2.346-26.321,3.698-39.463c1.435-13.133,2.924-26.26,4.67-39.359c1.684-13.105,3.655-26.182,5.907-39.228
			c-0.538,13.228-1.359,26.426-2.467,39.594c-1.045,13.174-2.348,26.32-3.704,39.462c-1.44,13.132-2.93,26.259-4.677,39.358
			C2956.237,1451,2954.271,1464.076,2952.022,1477.122z"/>
		<path style="fill:#FFFFFF;" d="M3063.898,1090.176c-3.117,0.494-6.209,1.083-9.329,1.495c-6.217,0.95-12.446,1.725-18.682,2.286
			c-6.241,0.486-12.479,0.915-18.713,0.881c-5.704-0.002-11.554-0.206-17.035-1.003c-2.723-11.806-5.495-23.6-8.503-35.34
			c-1.541-6.125-3.166-12.23-4.815-18.331c-1.751-6.077-3.357-12.188-5.241-18.235c0.909,6.269,2.094,12.474,3.134,18.713
			c1.143,6.215,2.31,12.425,3.561,18.616c2.446,12.394,5.146,24.73,7.895,37.056l0.327,1.467l1.407,0.218
			c6.604,1.024,12.903,1.148,19.329,1.037c6.389-0.215,12.748-0.734,19.048-1.642c6.304-0.87,12.54-2.121,18.709-3.591
			c6.147-1.574,12.246-3.283,18.221-5.368C3070.089,1088.973,3066.99,1089.578,3063.898,1090.176z"/>
		<path style="fill:#F4A640;" d="M2962.864,1358.707c0,0-96.353,200.521-108.115,283.283
			c-8.718,61.333-24.712,126.18-36.737,152.504l47.513,8.418c0,0,30.337-211.499,86.498-325.79L2962.864,1358.707z"/>
		<path style="fill:#FFC0BB;" d="M2715.573,1101.738c-0.583,2.657-5.419,3.854-10.8,2.674c-5.382-1.18-9.271-4.291-8.688-6.949
			c0.583-2.657,5.418-3.854,10.8-2.674C2712.266,1095.97,2716.156,1099.081,2715.573,1101.738z"/>
		<path style="fill:#FFC0BB;" d="M2698.577,1112.693c-0.583,2.658-5.418,3.855-10.8,2.675c-5.381-1.181-9.271-4.292-8.688-6.95
			c0.583-2.657,5.418-3.854,10.8-2.674S2699.16,1110.036,2698.577,1112.693z"/>
		<path style="fill:#FFC0BB;" d="M2698.714,1119.87c-0.374,2.694-5.103,4.265-10.559,3.506c-5.457-0.758-9.577-3.558-9.203-6.252
			c0.374-2.695,5.103-4.265,10.56-3.507C2694.969,1114.376,2699.088,1117.176,2698.714,1119.87z"/>
		<path style="fill:#FFC0BB;" d="M2700.797,1126.146c0.174,2.716-4.144,5.2-9.643,5.551c-5.498,0.35-10.096-1.567-10.269-4.282
			c-0.173-2.716,4.145-5.2,9.643-5.551C2696.026,1121.515,2700.625,1123.432,2700.797,1126.146z"/>
		<path style="fill:#FFC0BB;" d="M2703.341,1133.359c0.149,2.348-3.479,4.49-8.104,4.785c-4.625,0.294-8.496-1.371-8.646-3.719
			s3.479-4.49,8.104-4.785C2699.32,1129.347,2703.191,1131.011,2703.341,1133.359z"/>
		<path style="fill:#FFC0BB;" d="M2709.83,1095.686c0,0,11.671,2.93,17.402,15.738l-9.664-1.679l-2.502-4.562l-9.237-1.176v-4.407
			L2709.83,1095.686z"/>
		<g>
			<polygon style="fill:#3D3A55;" points="2554.587,1276.034 2491.183,1846.588 2501.193,1846.588 2589.07,1291.729 			"/>
			<polygon style="fill:#3D3A55;" points="3008.556,1276.034 3071.96,1846.588 3061.949,1846.588 2974.072,1291.729 			"/>
			<path style="fill:#3D3A55;" d="M3021.617,1294.622h-480.092c-0.772,0-1.398-0.626-1.398-1.399v-15.959
				c0-0.773,0.626-1.4,1.398-1.4h480.092c0.772,0,1.399,0.627,1.399,1.4v15.959
				C3023.017,1293.996,3022.39,1294.622,3021.617,1294.622z"/>
			<path style="fill:#3D3A55;" d="M3021.617,1426.695h-480.092c-0.772,0-1.398-0.627-1.398-1.399v-15.96
				c0-0.772,0.626-1.399,1.398-1.399h480.092c0.772,0,1.399,0.627,1.399,1.399v15.96
				C3023.017,1426.068,3022.39,1426.695,3021.617,1426.695z"/>
		</g>
		<path style="fill:#FFFFFF;" d="M2764.822,1275.863c0,0,12.809-15.263,35.962-16.366c23.153-1.104,26.603-20.316,48.278-20.316
			s31.009,12.312,49.263,20.316c18.255,8.005,42.772,0.831,56.363,16.366H2764.822z"/>
		<path style="fill:#FFC0BB;" d="M3066.563,1090.582c-3.827,1.164-7.688,2.227-11.573,3.221c-6.169,1.47-12.405,2.721-18.709,3.591
			c-6.3,0.907-12.659,1.427-19.048,1.642c-2.066,0.036-4.121,0.029-6.177-0.006c3.354,15.562,8.682,42.345,7.308,49.671
			c-1.691,9.022-98.758,52.665-131.175,74.287c-8.213-0.574-30.344-0.227-31.772,0.093c-1.848,0.412-8.977,2.817-8.297,8.725
			c0.679,5.906-8.535,3.112-1.655,16.086c0,0-4.331,5.911,2.38,10.164c0,0,0.32,4.818,2.873,4.741
			c1.619-0.05,17.57-3.118,29.015-5.354c7.909-1.545,15.632-3.854,23.093-6.9c39.111-15.963,165.668-69.231,170.386-91.988
			C3076.768,1141.391,3071.126,1110.645,3066.563,1090.582z"/>
	</g>
	<g>
		<path style="fill:#67A2DA;" d="M2524.813,1303.81c-3.636-64.784-48.561-119.873-111.301-136.422
			c-112.364-29.638-315.172-65.263-612.096-51.075c-296.925-14.188-499.732,21.438-612.097,51.075
			c-62.74,16.549-107.665,71.638-111.301,136.422l-7.201,128.313l46.182,75.091l53.257,173.086l509.274,33.47l3.448,15.793
			l118.437-7.783l118.436,7.783l3.447-15.793l509.274-33.47l53.258-173.086l46.183-75.091L2524.813,1303.81z"/>
		<polygon style="fill:#3D3A55;" points="2424.799,1856.183 2436.479,1856.183 2407.349,1762.524 2396.379,1764.81 		"/>
		<polygon style="fill:#3D3A55;" points="1175.971,1856.183 1164.291,1856.183 1193.421,1762.524 1204.391,1764.81 		"/>
		<path style="fill:#B7DBFF;" d="M2387.776,1613.419H1215.055c-14.413,0-26.097-11.685-26.097-26.097v-1.064
			c0-14.412,11.684-26.097,26.097-26.097h1172.722c14.413,0,26.097,11.685,26.097,26.097v1.064
			C2413.873,1601.734,2402.189,1613.419,2387.776,1613.419z"/>
		<path style="fill:#8FBCE6;" d="M2454.926,1404.384L2454.926,1404.384c-36.645,0-66.35,29.706-66.35,66.35v142.686H1214.255
			v-142.686c0-36.644-29.706-66.35-66.349-66.35l0,0c-57.479,0-104.074,46.596-104.074,104.074v212.807
			c0,31.619,25.632,57.251,57.251,57.251h97.194h15.977h1174.321h15.977h97.195c31.618,0,57.251-25.632,57.251-57.251v-212.807
			C2558.999,1450.979,2512.403,1404.384,2454.926,1404.384z"/>
		<path style="fill:#3D3A55;" d="M2502.846,1788.501H1097.689c-2.702,0-4.893-2.19-4.893-4.893v-0.2c0-2.702,2.19-4.893,4.893-4.893
			h1405.156c2.702,0,4.893,2.19,4.893,4.893v0.2C2507.738,1786.311,2505.548,1788.501,2502.846,1788.501z"/>
	</g>
	<rect x="691.089" y="688.71" style="opacity:0.5;fill:#97CEF7;" width="39.034" height="157.913"/>
	
		<rect x="978.331" y="750.297" transform="matrix(-1.836970e-16 1 -1 -1.836970e-16 1823.0957 -164.5879)" style="fill:#FFFFFF;" width="31.021" height="157.913"/>
	
		<rect x="999.34" y="719.172" transform="matrix(-1.836970e-16 1 -1 -1.836970e-16 1812.98 -216.7221)" style="fill:#97CEF7;" width="31.021" height="157.913"/>
	
		<rect x="966.659" y="688.826" transform="matrix(-1.836970e-16 1 -1 -1.836970e-16 1749.9521 -214.3877)" style="fill:#97CEF7;" width="31.021" height="157.913"/>
	<rect x="735.347" y="625.101" style="fill:#FFFFFF;" width="39.916" height="219.188"/>
	<rect x="649.687" y="649.261" style="fill:#97CEF7;" width="36.765" height="195.028"/>
	
		<rect x="816.205" y="649.26" transform="matrix(0.8986 -0.4387 0.4387 0.8986 -243.0178 441.8554)" style="fill:#97CEF7;" width="36.765" height="195.028"/>
	<path style="fill:#97CEF7;" d="M1199.969,631.793c-9.682,0-17.53,7.848-17.53,17.529v19.527c0,3.583-2.905,6.489-6.489,6.489
		h-8.015v-35.574c0-12.981-10.523-23.504-23.504-23.504c-12.981,0-23.504,10.523-23.504,23.504v74.877h-4.517
		c-5.716,0-10.35-4.633-10.35-10.35v-15.667c0-9.681-7.848-17.53-17.53-17.53l0,0c-9.681,0-17.53,7.849-17.53,17.53v26.016
		c0,19.363,15.697,35.06,35.06,35.06h14.866v44.718h47.008v-84.021h14.504c19.363,0,35.06-15.697,35.06-35.06v-26.016
		C1217.498,639.641,1209.65,631.793,1199.969,631.793z"/>
	<path style="opacity:0.5;fill:#97CEF7;" d="M1144.068,794.419V616.278c-12.813,0.196-23.142,10.628-23.142,23.486v74.877h-4.517
		c-5.716,0-10.35-4.633-10.35-10.35v-15.667c0-9.681-7.848-17.53-17.53-17.53l0,0c-9.681,0-17.53,7.849-17.53,17.53v26.016
		c0,19.363,15.697,35.06,35.06,35.06h14.866v44.718H1144.068z"/>
	<rect x="620.511" y="843.183" style="fill:#3D3A55;" width="631.423" height="17.839"/>
	<g>
		<rect x="1443.735" y="620.183" style="fill:#3D3A55;" width="232.133" height="232.133"/>
		<rect x="1467.519" y="643.967" style="fill:#97CEF7;" width="184.564" height="184.564"/>
	</g>
	<g>
		<rect x="1732.601" y="365.197" style="fill:#3D3A55;" width="232.133" height="232.133"/>
		<rect x="1756.385" y="388.981" style="fill:#97CEF7;" width="184.564" height="184.564"/>
	</g>
	<g>
		<rect x="1908.848" y="681.264" style="fill:#3D3A55;" width="295.979" height="295.979"/>
		<rect x="1939.174" y="711.59" style="fill:#97CEF7;" width="235.327" height="235.328"/>
	</g>
	<path style="fill:#FFFFFF;" d="M1154.092,843.183h-21.123c-12.553,0-22.729-10.176-22.729-22.729v-26.035h66.581v26.035
		C1176.821,833.006,1166.645,843.183,1154.092,843.183z"/>
	<g style="opacity:0.3;">
		<polygon style="fill:#FFFFFF;" points="2109.177,662.826 2471.877,662.826 2638.47,294.801 2275.77,294.801 		"/>
		<polygon style="fill:#FFFFFF;" points="2693.772,294.801 2527.18,662.826 2889.88,662.826 3056.473,294.801 		"/>
		<polygon style="fill:#FFFFFF;" points="1925.893,1067.727 2288.592,1067.727 2455.185,699.702 2092.484,699.702 		"/>
		<polygon style="fill:#FFFFFF;" points="2343.895,1067.727 2706.596,1067.727 2873.188,699.702 2510.487,699.702 		"/>
	</g>
	<g>
		<path style="fill:#02A595;" d="M641.373,1592.167c-0.745-13.266-2.989-26.604-1.13-39.76c1.57-11.11,6.002-21.581,9.167-32.346
			c5.931-20.173,7.401-41.346,8.837-62.323c2.611-38.133,5.222-76.265,7.832-114.397c4.059-59.274,8.138-118.717,19.244-177.083
			c3.084-16.205,6.546-33.765-0.752-48.558c-1.539-3.119-4.566-6.427-7.885-5.389c-2.364,0.739-3.524,3.338-4.381,5.661
			c-24.276,65.838-33.453,136.722-60.549,201.449c-6.491,15.507-14.042,30.761-17.402,47.231
			c-4.036,19.777-1.819,40.206-1.298,60.384c0.747,28.939-2.077,58.099-10.084,85.918c-4.189,14.555-9.799,28.782-12.095,43.754
			c-2.863,18.667-0.459,37.682,1.333,56.482c3.444,36.144,4.612,72.504,3.493,108.795c-0.658,21.336,17.39,20.777,29.346,7.669
			c8.361-9.166,8.284-19.229,11.147-30.642C625.593,1661.553,643.655,1632.784,641.373,1592.167z"/>
		<path style="fill:#2BD8C3;" d="M602.618,1568.772c-7.389-25.529-18.855-49.844-24.602-75.792
			c-5.574-25.17-5.618-51.19-5.636-76.969c-0.02-28.248-0.04-56.496-0.06-84.744c-0.013-17.586-0.033-35.268-2.945-52.611
			c-6.266-37.316-25.701-71.821-28.993-109.517c-1.424-16.301,0.229-32.776-1.567-49.04c-1.026-9.291-3.415-18.775-7.725-27.018
			c-4.635-8.865-17.44-8.474-21.64,0.606c-9.44,20.409-15.427,42.473-11.613,64.341c2.288,13.117,7.981,25.352,12.232,37.971
			c18.93,56.194,8.881,118.401,23.528,175.861c4.421,17.345,11.106,34.354,11.884,52.235c1.861,42.799-30.17,81.894-27.232,124.631
			c2.409,35.041,27.654,64.04,38.25,97.526c5.932,18.746,7.202,38.756,13.557,57.363c4.938,14.456,16.419,32.013,34.254,27.624
			c16.932-4.165,11.816-17.958,11.06-31.131C612.811,1655.547,615.218,1612.309,602.618,1568.772z"/>
		<path style="fill:#06BFAD;" d="M568.412,1586.512c-1.737-15.304-3.799-30.958-10.917-44.616
			c-8.656-16.607-23.862-28.591-37.148-41.789c-24.824-24.662-43.927-55.048-55.392-88.108c-8.866-25.564-13.286-52.8-25.503-76.942
			c-7.46-14.74-17.634-27.92-26.107-42.103c-20.028-33.521-30.929-73.14-58.089-101.197c-5.227,34.019,5.102,70.117,27.532,96.224
			c6.689,7.785,14.447,14.804,19.543,23.713c9.25,16.175,8.408,35.908,9.492,54.509c2.037,34.959,11.909,69.438,28.683,100.178
			c17.819,32.653,43.539,61.731,53.066,97.689c7.14,26.946,5.018,57.172,20.239,80.525c1.649,2.53,3.537,5.073,3.942,8.066
			c0.227,1.682-0.037,3.386-0.3,5.063c-0.341,2.17-0.681,4.339-1.022,6.509c-3.463,22.054-7.041,50.115,11.949,66.622
			c13.162,11.439,30.102,11.694,39.554-3.5c9.518-15.3,8.674-37.692,7.967-54.911
			C574.723,1643.77,571.646,1615.016,568.412,1586.512z"/>
		<path style="fill:#06BFAD;" d="M686.064,1655.883c4.573-11.803,9.186-23.758,10.692-36.324
			c1.676-13.971-0.547-28.258,1.844-42.123c3.074-17.825,13.49-33.504,18.645-50.843c3.723-12.521,4.638-25.677,6.874-38.546
			c6.395-36.803,23.733-72.765,18.757-109.785c-1.083-8.053-4.724-17.438-12.733-18.812c-7.249-1.243-13.85,5.372-15.735,12.481
			s-0.479,14.607,0.04,21.944c1.443,20.461-4.406,41.362-16.261,58.102c-11.39,16.083-27.915,28.192-38.165,45.024
			c-12.573,20.647-14.283,45.852-20.698,69.158c-12.758,46.349-44.755,86.781-50.589,134.499
			c-2.321,18.987,2.144,42.067,19.705,49.653C659.228,1772.252,674.56,1685.573,686.064,1655.883z"/>
		<path style="fill:#02A595;" d="M528.617,1650.021c-15.958-25.589-47.752-40.137-57.951-68.517
			c-2.596-7.223-3.609-14.989-6.781-21.978c-7.043-15.521-23.054-24.293-38.796-31.434c-2.186-0.992-4.67,0.589-4.703,2.989l0,0
			c-0.052,3.815,1.76,7.456,4.928,9.585c12.126,8.146,21.343,20.6,25.445,34.633c4.862,16.633,2.753,34.865,8.796,51.106
			c5.074,13.634,15.518,24.778,20.425,38.474c4.485,12.52,4.014,26.197,6.122,39.328c2.109,13.129,7.953,27.063,20.035,32.618
			C549.852,1756.929,538.927,1666.553,528.617,1650.021z"/>
		<path style="fill:#02A595;" d="M710.434,1641.577c-0.681,12.371,1.214,25.341-3.636,36.742c-3.104,7.294-8.687,13.191-13.27,19.66
			c-16.091,22.714-21.927,54.896-46.653,67.683c-1.631,0.844-3.451,1.599-5.257,1.263c-2.534-0.471-4.194-2.907-5.213-5.275
			c-6.061-14.094,0.74-29.972,4.768-44.776c0.705-2.59,1.296-5.477,0.059-7.858c-1.361-2.62-4.464-3.757-6.582-5.813
			c-4.225-4.101-3.827-10.885-2.988-16.712c2.096-14.56,5.043-28.996,8.82-43.212c2.142-8.062,4.615-16.192,9.269-23.114
			c5.123-7.619,12.564-13.307,19.531-19.287c30.788-26.432,54.373-61.173,67.574-99.543c2.857-8.307,5.406-17.076,11.309-23.581
			c5.903-6.506,16.425-9.854,23.614-4.806c5.115,3.592-15.836,37.223-18.279,41.255c-6.98,11.523-7.073,21.553-11.018,34.351
			C732.814,1579.91,712.284,1607.978,710.434,1641.577z"/>
		<path style="fill:#FFFFFF;" d="M462.027,1694.811h256.938c9.252,0,16.561,8.041,15.472,17.229
			c-6.321,53.343-41.625,97.783-89.717,117.201h14.063c6.755,0,12.646,5.206,12.85,11.958c0.209,6.987-5.392,12.718-12.332,12.718
			H522.209c-6.755,0-12.646-5.205-12.849-11.958c-0.21-6.987,5.392-12.718,12.332-12.718h14.58
			c-48.091-19.418-83.396-63.858-89.716-117.201C445.467,1702.852,452.776,1694.811,462.027,1694.811z"/>
		<path style="opacity:0.3;fill:#C9EAFD;" d="M462.027,1694.811h9.075c25.903,38.211,69.675,63.323,119.315,63.323
			c49.641,0,93.412-25.112,119.315-63.323h9.233c9.252,0,16.561,8.041,15.472,17.229c-6.321,53.343-41.625,97.783-89.717,117.201
			h14.063c6.755,0,12.646,5.206,12.85,11.958c0.209,6.987-5.392,12.718-12.332,12.718H522.209c-6.755,0-12.646-5.205-12.85-11.958
			c-0.21-6.987,5.392-12.718,12.332-12.718h14.58c-48.091-19.418-83.396-63.858-89.716-117.201
			C445.467,1702.852,452.776,1694.811,462.027,1694.811z"/>
	</g>
	<g>
		<g>
			<path style="fill:#FFFFFF;" d="M1577.691,674.247c0,0-19.008-0.549-30.151,25.369c-9.482,22.053-11.142,55.251-30.806,76.226
				c-19.664,20.975-53.747,82.587-20.975,106.183c32.773,23.596,112.738,34.083,145.51-3.277
				c32.772-37.361,7.866-74.066,3.277-110.116C1639.959,732.582,1627.505,667.037,1577.691,674.247z"/>
			<path style="opacity:0.3;fill:#C9EAFD;" d="M1553.298,870.369c-36.977-16.234-16.508-83.604-1.657-108.222
				c14.851-24.618,9.543-57.431,14.212-80.978c0.273-1.381,0.588-2.685,0.924-3.948c-6.142,3.106-13.671,9.448-19.237,22.395
				c-9.482,22.053-11.142,55.251-30.806,76.226c-19.663,20.975-53.747,82.587-20.975,106.183
				c32.773,23.596,112.738,34.083,145.51-3.277c2.131-2.43,4.008-4.857,5.672-7.281
				C1614.65,881.718,1575.882,880.284,1553.298,870.369z"/>
		</g>
		<path style="fill:#FFC0BB;" d="M1601.832,738.971c-1.218,0.577-2.601-0.422-2.414-1.757c1.446-10.342,5.787-42.915,3.24-43.881
			c-3.03-1.149-7.618,27.861-10.576,28.413c-2.958,0.551,2.234-27.632-1.203-28.338c-3.437-0.706-7.308,25.151-8.86,25.358
			c-1.552,0.208-0.492-24.962-2.264-26.59c-1.772-1.628-6.173,26.733-7.986,27.52c-1.812,0.787-4.909-20.301-6.609-20.229
			c-1.701,0.072-2.846-0.163-8.426,45.639l-3.417,26.44l8.815,7.114l20.269-0.718c0,0,41.195-42.771,40.668-45.162
			C1622.566,730.5,1620.594,730.09,1601.832,738.971z"/>
		<polygon style="fill:#FFC0BB;" points="1894.252,1808.938 1894.252,1784.334 1922.398,1776.539 1928.662,1779.29 
			1929.73,1808.938 1920.867,1834.77 		"/>
		<path style="fill:#FFFFFF;" d="M1986.271,1844.21l-99.038,0.944c-1.212,0.012-2.204-0.962-2.215-2.174l-0.056-5.873
			c-0.012-1.212,0.961-2.203,2.173-2.215l99.038-0.945c1.212-0.011,2.204,0.962,2.215,2.174l0.057,5.874
			C1988.456,1843.207,1987.483,1844.198,1986.271,1844.21z"/>
		<path style="fill:#FFCC68;" d="M1889.379,1803.694l-3.154,28.572c-0.389,3.522,1.639,6.699,4.261,6.674l91.141-0.869
			c2.367-0.022,4.694-1.501,5.911-4.252c1.248-2.819,1.463-7.052-2.671-12.699c-8.119-11.09-34.143-13.718-47.583-22.882
			c-0.481-0.329-1.042-0.509-1.628-0.503l-41.554,0.396C1891.73,1798.153,1889.73,1800.509,1889.379,1803.694z"/>
		<g>
			<path style="fill:#333333;" d="M1930.269,1814.359L1930.269,1814.359c-0.663-0.393-0.914-1.484-0.541-2.32
				c1.753-3.928,7.256-13.5,18.655-11.653c0.658,0.106,1.112,0.964,1.009,1.853l-0.003,0.028c-0.101,0.86-0.688,1.43-1.325,1.328
				c-10.216-1.618-14.892,6.817-16.308,10.109C1931.453,1814.405,1930.819,1814.687,1930.269,1814.359z"/>
		</g>
		<g>
			<path style="fill:#333333;" d="M1939.77,1817.942L1939.77,1817.942c-0.663-0.393-0.914-1.484-0.541-2.32
				c1.752-3.927,7.255-13.5,18.654-11.653c0.659,0.106,1.112,0.964,1.01,1.853l-0.004,0.028c-0.1,0.861-0.687,1.43-1.324,1.329
				c-10.216-1.619-14.892,6.817-16.309,10.108C1940.954,1817.989,1940.319,1818.27,1939.77,1817.942z"/>
		</g>
		<g>
			<path style="fill:#333333;" d="M1948.605,1821.286L1948.605,1821.286c-0.663-0.393-0.914-1.484-0.541-2.32
				c1.752-3.927,7.255-13.5,18.655-11.653c0.658,0.106,1.112,0.963,1.009,1.853l-0.004,0.028c-0.1,0.86-0.687,1.43-1.324,1.328
				c-10.216-1.618-14.892,6.817-16.309,10.109C1949.79,1821.332,1949.156,1821.613,1948.605,1821.286z"/>
		</g>
		<path style="opacity:0.3;fill:#E87B50;" d="M1913.48,1834.928c-6.539-17.021-16.054-20.789-22.598-21.093
			c-1.478-0.068-2.738,1.046-2.898,2.495l-1.76,15.937c-0.389,3.522,1.639,6.699,4.261,6.674l20.383-0.194
			C1912.854,1838.727,1914.184,1836.759,1913.48,1834.928z"/>
		<polygon style="fill:#FFC0BB;" points="1735.239,1808.938 1735.239,1784.334 1707.094,1776.539 1700.83,1779.29 
			1699.762,1808.938 1708.625,1834.77 		"/>
		<path style="fill:#FFFFFF;" d="M1643.22,1844.21l99.038,0.944c1.212,0.012,2.204-0.962,2.215-2.174l0.056-5.873
			c0.012-1.212-0.961-2.203-2.174-2.215l-99.038-0.945c-1.212-0.011-2.204,0.962-2.215,2.174l-0.056,5.874
			C1641.035,1843.207,1642.008,1844.198,1643.22,1844.21z"/>
		<path style="fill:#FFCC68;" d="M1740.112,1803.694l3.155,28.572c0.389,3.522-1.639,6.699-4.261,6.674l-91.14-0.869
			c-2.368-0.022-4.694-1.501-5.911-4.252c-1.248-2.819-1.463-7.052,2.671-12.699c8.119-11.09,34.142-13.718,47.583-22.882
			c0.481-0.329,1.042-0.509,1.627-0.503l41.555,0.396C1737.762,1798.153,1739.761,1800.509,1740.112,1803.694z"/>
		<g>
			<path style="fill:#333333;" d="M1699.224,1814.359L1699.224,1814.359c0.662-0.393,0.913-1.484,0.54-2.32
				c-1.752-3.928-7.255-13.5-18.655-11.653c-0.659,0.106-1.112,0.964-1.009,1.853l0.003,0.028c0.1,0.86,0.687,1.43,1.325,1.328
				c10.216-1.618,14.891,6.817,16.308,10.109C1698.038,1814.405,1698.672,1814.687,1699.224,1814.359z"/>
		</g>
		<g>
			<path style="fill:#333333;" d="M1689.723,1817.942L1689.723,1817.942c0.663-0.393,0.914-1.484,0.541-2.32
				c-1.752-3.927-7.255-13.5-18.655-11.653c-0.658,0.106-1.112,0.964-1.009,1.853l0.003,0.028c0.1,0.861,0.687,1.43,1.325,1.329
				c10.216-1.619,14.892,6.817,16.308,10.108C1688.538,1817.989,1689.172,1818.27,1689.723,1817.942z"/>
		</g>
		<g>
			<path style="fill:#333333;" d="M1680.887,1821.286L1680.887,1821.286c0.663-0.393,0.914-1.484,0.54-2.32
				c-1.752-3.927-7.255-13.5-18.655-11.653c-0.658,0.106-1.112,0.963-1.009,1.853l0.003,0.028c0.1,0.86,0.688,1.43,1.325,1.328
				c10.216-1.618,14.892,6.817,16.308,10.109C1679.701,1821.332,1680.336,1821.613,1680.887,1821.286z"/>
		</g>
		<path style="opacity:0.3;fill:#E87B50;" d="M1716.011,1834.928c6.54-17.021,16.055-20.789,22.599-21.093
			c1.477-0.068,2.738,1.046,2.898,2.495l1.759,15.937c0.389,3.522-1.639,6.699-4.261,6.674l-20.382-0.194
			C1716.638,1838.727,1715.308,1836.759,1716.011,1834.928z"/>
		<path style="fill:#333333;" d="M1953.058,1197.917c-33.486,49.234-100.396,120.257-100.396,120.257l0,0l30.846,477.076
			c0,0,44.674,4.716,60.03-6.872C1943.537,1788.378,1955.243,1336.092,1953.058,1197.917z"/>
		<path style="fill:#333333;" d="M1940.391,1216.217c-0.11-6.979,12.933,13.6,12.687,8.027
			c-5.119-115.882-167.644-18.719-167.644-18.719l-34.137-7.008l-62.711,594.811c0,0,40.798,8.792,64.16,0l99.916-469.338
			C1852.661,1323.99,1888.413,1309.01,1940.391,1216.217z"/>
		<path style="fill:#FFC0BB;" d="M1703.309,956.955l3.609-75.671l-20.804,1.273c-41.771,10.704-86.42,2.647-94.63-2.103
			c-17.415-10.076,2.883-117.044,2.883-117.044l-38.698,3.163c0,0-51.558,136.997-4.554,165.152
			c47.004,28.155,141.917,27.193,141.917,27.193L1703.309,956.955z"/>
		<path style="fill:#FFC0BB;" d="M2172.479,921.105c0.306,1.313,1.947,1.774,2.877,0.797c7.198-7.565,30.004-31.224,32.345-29.829
			c2.784,1.658-17.077,23.294-15.67,25.953c1.408,2.659,20.248-18.936,22.938-16.684c2.689,2.252-15.149,21.366-14.346,22.71
			c0.802,1.345,19.852-15.141,22.229-14.766c2.378,0.375-17.093,21.461-16.582,23.37c0.512,1.908,18.95-8.783,19.951-7.407
			c1.001,1.376,1.897,2.127-30.497,34.984l-18.578,19.121l-11.054-2.478l-12.044-16.317c0,0,7.868-58.86,10.068-59.934
			C2166.215,899.601,2167.763,900.891,2172.479,921.105z"/>
		<path style="fill:#FFC0BB;" d="M1938.674,977.228l57.008-49.893l11.941,17.082c17.6,39.366,51.68,69.317,60.506,72.791
			c18.721,7.37,89.854-75.056,89.854-75.056l21.594,32.269c0,0-75.206,125.581-126.487,106.287
			c-51.282-19.294-109.563-94.212-109.563-94.212L1938.674,977.228z"/>
		<g>
			<path style="fill:#FFC0BB;" d="M1824.482,797.716v62.019c0,0,61.39-0.942,61.631-2.288c0.241-1.346-4.49-62.053-4.49-62.053
				L1824.482,797.716z"/>
			<path style="fill:#FEB546;" d="M1931.982,714.098c20.773-3.968-20.074-25.675-20.074-25.675s17.74,0.467,18.051-7.469
				c0.312-7.936-31.354-6.302-31.354-6.302s21.474-8.87,16.572-13.538c-4.036-3.843-37.387,0.803-49.05,2.565
				c2.914-3.251,4.516-6.903,1.59-9.957c-7.158-7.469-48.65,19.34-48.65,19.34l0.002,0.001
				c-17.755,10.5-23.398,26.408-23.398,26.408s-4.318-6.964-6.536-4.824c-4.496,4.338,3.735,11.048,3.735,11.048
				c-5.289-2.549-8.838-2.016-10.389-1.529c-0.574,0.18-0.99,0.68-1.065,1.276c-0.74,5.927,7.097,7.41,7.097,7.41
				s-23.876,40.761-1.59,32.791c0,0-13.85,33.142,2.635,28.904c8.031,34.853,41.549,43.861,52.329,42.485
				c10.97-1.4,23.341,0.934,23.341,0.934c57.419,1.634,64.732-50.184,64.732-50.184c15.717,11.204,3.424-21.474,3.424-21.474
				C1957.891,754.477,1931.982,714.098,1931.982,714.098z"/>
			<path style="fill:#F4A640;" d="M1870.673,782.721c-20.54,21.94-28.01-2.334-28.01-2.334c-13.071,3.734-9.803-19.607-9.803-19.607
				c-36.412-0.467-18.206-50.302-18.206-50.302c-13.995,0.08-5.3-22.014,1.25-35.404c-15.269,10.401-20.234,24.397-20.234,24.397
				s-4.318-6.964-6.536-4.824c-4.496,4.338,3.735,11.048,3.735,11.048c-5.289-2.549-8.838-2.016-10.389-1.529
				c-0.574,0.18-0.99,0.68-1.065,1.276c-0.74,5.927,7.097,7.41,7.097,7.41s-23.876,40.761-1.59,32.791
				c0,0-13.85,33.142,2.635,28.904c8.031,34.853,41.549,43.861,52.329,42.485c10.97-1.4,23.341,0.934,23.341,0.934
				c57.419,1.634,64.732-50.184,64.732-50.184C1908.485,817.265,1870.673,782.721,1870.673,782.721z"/>
		</g>
		<path style="fill:#FF5B7E;" d="M1746.797,956.09c0,0-13.764,271.029-13.764,285.776c0,0,129.124,23.597,224.491,4.916
			l-23.596-263.491l23.596,29.496c0,0,55.059-15.731,66.856-46.21c0,0-52.108-101.267-134.695-120.931c0,0-37.36,17.697-67.839,0
			c0,0-144.526,33.428-144.526,37.361s0,43.26,20.647,75.704L1746.797,956.09z"/>
	</g>
	<g>
		<g>
			<path style="fill:#FFC0BB;" d="M1055.592,1770.462c-1.473,26.821-0.115,73.328-0.115,73.328l-25.302-14.618
				c-0.873-3.949-6.116-36.188-8.172-59.83L1055.592,1770.462z"/>
			<path style="fill:#FFC0BB;" d="M1088.871,1832.446l-33.938-21.159l-24.757,17.885l9.473,6.81l32.972,4.809
				c0,0,12.885-1.587,13.454-1.967C1086.642,1838.444,1088.871,1832.446,1088.871,1832.446z"/>
			<path style="fill:#FF5B7E;" d="M1088.871,1832.446l7.959,5.174c3.689,2.351,2.023,8.062-2.351,8.062h-60.443
				c-2.132,0-3.86-1.729-3.86-3.86v-12.649C1070.43,1841.987,1084.333,1838.088,1088.871,1832.446z"/>
		</g>
		<g>
			<path style="fill:#FFC0BB;" d="M863.125,1770.462c1.473,26.821,0.115,73.328,0.115,73.328l25.302-14.618
				c0.873-3.949,6.115-36.188,8.172-59.83L863.125,1770.462z"/>
			<path style="fill:#FFC0BB;" d="M829.847,1832.446l33.938-21.159l24.757,17.885l-9.473,6.81l-32.972,4.809
				c0,0-12.886-1.587-13.454-1.967C832.076,1838.444,829.847,1832.446,829.847,1832.446z"/>
			<path style="fill:#FF5B7E;" d="M829.847,1832.446l-7.959,5.174c-3.689,2.351-2.023,8.062,2.351,8.062h60.443
				c2.132,0,3.86-1.729,3.86-3.86v-12.649C848.288,1841.987,834.385,1838.088,829.847,1832.446z"/>
		</g>
		<g>
			<rect x="902.532" y="1328.234" style="fill:#FFC0BB;" width="39.681" height="69.643"/>
			<path style="fill:#F99893;" d="M942.148,1340.135v-23.751h-39.616v20.206C911.061,1341.172,923.689,1343.81,942.148,1340.135z"/>
			<path style="fill:#FFC0BB;" d="M997.732,1250.702c-3.794-1.871-8.198-1.538-12.185,0.483
				c1.369-35.883-27.893-66.063-64.749-64.787c-36.856-1.276-66.119,28.904-64.75,64.787c-3.987-2.021-8.391-2.354-12.185-0.483
				c-7.279,3.591-9.542,13.878-5.054,22.978c4.489,9.1,14.029,13.565,21.308,9.975c1.011-0.499,1.914-1.138,2.727-1.873
				c4.171,29.664,28.917,51.902,57.953,51.489c29.035,0.413,53.781-21.825,57.953-51.489c0.813,0.735,1.716,1.374,2.727,1.873
				c7.279,3.591,16.819-0.875,21.308-9.975C1007.274,1264.58,1005.012,1254.293,997.732,1250.702z"/>
			<path style="fill:#FF5B7E;" d="M911.75,1174.571c0,0,1.803-43.239-44.613-53.639c-46.416-10.399-55.349,42.572-89.326,37.465
				c0,0,35.558,41.163,75.2,28.982c30.072-9.24,41.985-5.655,45.984-3.386c2.405,1.364,5.268,1.9,7.891,1.025
				C909.852,1184.03,912.605,1181.347,911.75,1174.571z"/>
			<path style="fill:#07085B;" d="M879.559,1182.988l-0.008-0.01c-0.89-1.173-0.609-2.856,0.621-3.665
				c5.024-3.301,17.947-10.735,33.461-11.527c1.455-0.074,2.677,1.095,2.677,2.552l0,0c0,1.357-1.066,2.469-2.421,2.539
				c-14.182,0.74-26.34,7.734-30.92,10.714C881.852,1184.317,880.364,1184.05,879.559,1182.988z"/>
			<path style="fill:#FF5B7E;" d="M923.372,1171.15c0,0,67.131-3.762,70.688,78.433c0,0-4.878-0.354-8.512,1.603
				c0,0-53.166-13.298-66.366-64.822L923.372,1171.15z"/>
			<path style="fill:#FF5B7E;" d="M844.636,1250.319c0,0,5.376-2.251,11.413,0.866c64.75-7.082,67.324-80.035,67.324-80.035
				C840.622,1176.058,844.636,1250.319,844.636,1250.319z"/>
			<g>
				<path style="fill:#333333;" d="M909.577,1269.108c0.196,3.013-2.092,5.613-5.109,5.808c-3.017,0.194-5.623-2.092-5.818-5.104
					s2.091-5.613,5.109-5.808C906.776,1263.811,909.38,1266.096,909.577,1269.108z"/>
				<path style="fill:#333333;" d="M953.951,1270.052c0.196,3.014-2.091,5.613-5.109,5.808c-3.018,0.194-5.623-2.091-5.819-5.104
					c-0.196-3.013,2.092-5.612,5.109-5.807C951.15,1264.754,953.755,1267.039,953.951,1270.052z"/>
				<path style="fill:#FF5B7E;" d="M915.468,1257.864c-2.747-0.926-5.358-1.647-7.962-2.082c-2.598-0.438-5.16-0.534-7.66-0.242
					c-2.485,0.321-4.984,0.858-7.369,1.958c-1.407,0.539-0.23,0.015-3.636,1.708c-1.222,0.629-2.354,1.421-3.709,2.046
					c0.721-1.239,1.544-2.458,2.497-3.57c1.062-0.984,2.037-2.157,3.336-2.911c2.413-1.788,5.421-2.804,8.451-3.169
					c3.049-0.353,6.162,0.094,8.937,1.192C911.109,1253.922,913.649,1255.567,915.468,1257.864z"/>
				<path style="fill:#FF5B7E;" d="M934.78,1258.459c1.753-2.345,4.247-4.058,6.971-5.259c2.743-1.173,5.843-1.703,8.9-1.433
					c3.038,0.283,6.074,1.219,8.536,2.941c1.32,0.719,2.327,1.865,3.416,2.82c0.984,1.086,1.84,2.282,2.596,3.502
					c-1.372-0.588-2.525-1.35-3.765-1.945c-3.425-1.589-2.242-1.103-3.683-1.61c-2.415-1.035-4.928-1.505-7.42-1.759
					c-2.507-0.226-5.066-0.062-7.65,0.447C940.09,1256.668,937.499,1257.46,934.78,1258.459z"/>
				<path style="fill:#F99893;" d="M926.833,1260.338c-0.735,2.958-0.978,5.998-0.864,9.063c0.061,1.538,0.241,3.074,0.597,4.63
					c0.387,1.545,0.902,3.128,2.044,4.597l0.492,0.523l0.44,0.447c0.185,0.213,0.452,0.382,0.585,0.616
					c0.354,0.424,0.591,0.897,0.713,1.397c0.308,1.002-0.07,2.156-0.721,3.216c-1.419,2.147-4.132,3.507-7.014,4.377
					c2.979,0.304,6.42-0.383,8.791-2.981c1.158-1.257,1.968-3.158,1.639-5.117c-0.081-0.484-0.202-0.96-0.42-1.393
					c-0.172-0.463-0.446-0.846-0.717-1.235c-0.257-0.409-0.621-0.681-0.935-1.021c-0.199-0.188-0.233-0.251-0.335-0.36l-0.273-0.294
					c-0.715-0.885-1.224-2.176-1.65-3.484c-0.456-1.319-0.686-2.75-1-4.168C927.686,1266.281,927.296,1263.339,926.833,1260.338z"/>
			</g>
			<path style="fill:#F99893;" d="M911.514,1290.194c1.622,1.828,3.384,3.418,5.297,4.729c8.284,5.567,15.249,2.83,20.005,1.941
				c-7.123,4.536-14.329,4.796-21.013-0.65C913.925,1294.543,912.396,1292.49,911.514,1290.194z"/>
		</g>
		<path style="fill:#FFC0BB;" d="M949.889,1351.922l-68.534-12.259c0,0,20.623,28.138,21.177,28.695s32.313,18.387,33.148,17.551
			c0.836-0.835,17.341-13.094,18.282-16.715C954.904,1365.572,949.889,1351.922,949.889,1351.922z"/>
		<path style="fill:#FF5B7E;" d="M1024.366,1535.606c0,0,46.803,193.157,45.317,265.962c0,0-47.546,5.2-57.947,0l-58.69-183.499
			l-8.915-0.743l-31.202,190.186c0,0-44.575-0.743-64.633-8.915c0,0,18.573-237.16,23.773-238.932
			C877.269,1557.894,1024.366,1535.606,1024.366,1535.606z"/>
		<path style="fill:#FEB546;" d="M949.889,1351.922c0,0,27.302-2.229,37.888,16.158c10.587,18.387,23.958,49.204,23.958,49.204
			l-10.028,10.972l32.874,119.794c0,0-94.164,60.733-171.055,20.616l-26.745-139.296l4.829-85.807l39.746-3.9l54.325,25.631
			C935.681,1365.294,949.332,1363.065,949.889,1351.922z"/>
		<path style="fill:#07085B;" d="M1233.66,1670.124l-394.535-430.77c-3.421-3.735-9.341-3.633-12.63,0.22l0,0
			c-2.75,3.223-2.683,7.985,0.158,11.128l391.738,433.389c3.161,3.497,8.575,3.724,12.017,0.502l2.798-2.619
			C1236.578,1678.815,1236.781,1673.531,1233.66,1670.124z"/>
		<path style="fill:#F4A640;" d="M866.547,1341.117c13.594,45.199,67.727,201.475,162.307,186.062l5.728,20.871
			c0,0-94.165,60.733-171.055,20.616l-26.745-139.296l4.829-85.807L866.547,1341.117z"/>
		<path style="fill:#FFC0BB;" d="M987.22,1453.143c-20.43,60.176-62.404,71.32-62.404,71.32
			c-59.433,8.914-84.32-100.665-84.32-100.665l34.174-20.43c0,0,32.688,57.947,41.603,63.147s44.575-38.26,44.575-38.26
			l7.137-29.047c0.743-3.025,2.685-5.7,5.492-7.055c2.646-1.276,5.943-1.509,8.543,2.67c0,0,11.887,0,10.586,9.844
			c0,0,10.029-2.229,10.215,9.658c0,0,10.098,0,13.662,9.103c1.131,2.89-0.838,6.057-3.936,6.231l-4.711,0.267
			C1007.836,1429.927,1001.521,1454.814,987.22,1453.143z"/>
		<path style="fill:#F9A332;" d="M892.871,1416.369c0,0-15.601-79.863-51.261-72.806c-35.66,7.058-10.029,94.35-10.029,94.35
			S880.241,1426.027,892.871,1416.369z"/>
		<path style="fill:#FFCD92;" d="M1227.924,1844.237c17.83,5.571,159.911,0.557,171.612-1.672s71.877,3.343,90.821,4.458
			c18.944,1.113,64.076,1.113,60.176-8.358c-3.9-9.472-94.164-7.429-94.164-7.429c-8.916-18.573-32.975-20.059-32.975-20.059
			c1.2-17.83-19.029-26.002-38.345-30.46c-19.316-4.457-28.23-11.887-60.918-55.718c-32.688-43.832-89.114-51.205-89.114-51.205
			s-16.008-9.528-18.477,10.752c-2.469,20.28,4.14,31.538,24.198,76.11s-22.288,25.075-28.974,51.264
			C1205.079,1838.107,1227.924,1844.237,1227.924,1844.237z M1369.448,1785.732c30.088,1.394,42.346,23.959,42.346,23.959
			C1380.871,1808.577,1369.448,1785.732,1369.448,1785.732z M1245.475,1803.563c10.918-2.569,9.193-26.466,9.193-26.466
			c12.258,9.472,16.995,30.645,3.344,36.217c-22.969,9.375-32.317,15.044-32.317,15.044
			C1218.173,1816.1,1226.53,1808.02,1245.475,1803.563z"/>
		<path style="opacity:0.5;fill:#FFCD92;" d="M1227.924,1844.237c17.83,5.571,159.911,0.557,171.612-1.672
			s71.877,3.343,90.821,4.458c18.944,1.113,64.076,1.113,60.176-8.358c-0.745-1.808-4.65-3.194-10.46-4.257
			c-5.754,3.593-14.552,6.303-27.986,5.743c-35.659-1.486-88.406-8.794-114.408-5.14c-26.002,3.653-92.121,11.083-95.835-3.775
			c-3.715-14.858,14.115-33.988-10.401-54.14s-55.718-40.953-62.404-69.184c-3.056-12.899-3.315-25.945-2.7-36.32
			c-4.203,0.292-8.599,3.101-9.797,12.954c-2.469,20.28,4.14,31.538,24.198,76.11s-22.288,25.075-28.974,51.264
			C1205.079,1838.107,1227.924,1844.237,1227.924,1844.237z M1245.475,1803.563c10.918-2.569,9.193-26.466,9.193-26.466
			c12.258,9.472,16.995,30.645,3.344,36.217c-22.969,9.375-32.317,15.044-32.317,15.044
			C1218.173,1816.1,1226.53,1808.02,1245.475,1803.563z"/>
		<g>
			<path style="fill:#FFC0BB;" d="M1086.528,1490.471c-1.907-3.011-8.112-2.499-13.86,1.142c-5.748,3.642-8.862,9.033-6.955,12.044
				c1.907,3.01,8.112,2.499,13.86-1.143C1085.321,1498.873,1088.435,1493.48,1086.528,1490.471z"/>
			<path style="fill:#FFC0BB;" d="M1079.131,1477.206c-2.502-2.537-8.458-0.722-13.302,4.057
				c-4.845,4.777-6.744,10.707-4.241,13.245c2.502,2.537,8.458,0.721,13.302-4.057
				C1079.734,1485.673,1081.633,1479.743,1079.131,1477.206z"/>
			<path style="fill:#FFC0BB;" d="M1070.488,1469.503c-2.494-2.529-8.431-0.719-13.26,4.043c-4.829,4.763-6.722,10.674-4.228,13.203
				c2.495,2.528,8.431,0.719,13.26-4.044C1071.089,1477.942,1072.982,1472.032,1070.488,1469.503z"/>
			<path style="fill:#FFC0BB;" d="M1058.057,1461.653c-2.929-2.01-8.414,0.896-12.25,6.489c-3.836,5.594-4.571,11.756-1.642,13.766
				c2.93,2.009,8.414-0.896,12.25-6.49C1060.251,1469.825,1060.986,1463.662,1058.057,1461.653z"/>
		</g>
		<path style="opacity:0.3;fill:#FF5B7E;" d="M953.046,1618.069l9.101,4.086l80.225,181.464c0,0-23.578,1.664-30.635-2.051
			L953.046,1618.069z"/>
	</g>
	<path style="fill:#333333;" d="M3368.805,1872.111H361.273c-7.616,0-13.79-6.174-13.79-13.79l0,0c0-7.616,6.174-13.79,13.79-13.79
		h3007.531c7.616,0,13.79,6.174,13.79,13.79l0,0C3382.595,1865.938,3376.421,1872.111,3368.805,1872.111z"/>
	<path style="opacity:0.3;fill:#FF5B7E;" d="M1776.91,856.242c-42.427,10.153-99.591,24.292-99.591,26.766
		c0,3.933,0,43.26,20.646,75.704l48.831-2.622c0,0-13.764,271.029-13.764,285.776c0,0,129.124,23.597,224.491,4.916l-0.521-5.821
		C1801.58,1155.765,1779.073,947.173,1776.91,856.242z"/>
</g>
</svg>
